<?xml version="1.0" encoding="UTF-8"?> <svg xmlns="http://www.w3.org/2000/svg" xmlns:xlink="http://www.w3.org/1999/xlink" width="215" height="215" viewBox="0 0 215 215"><defs><clipPath id="clip-path"><rect width="215" height="215" fill="none"></rect></clipPath></defs><g id="Our_Events_Main" data-name="Our Events Main" clip-path="url(#clip-path)"><ellipse id="Ellipse_6" data-name="Ellipse 6" cx="107.5" cy="107.5" rx="107.5" ry="107.5" fill="#da4048"></ellipse><path id="Path_204" data-name="Path 204" d="M99.16,13.674H93.6v-9.7H83.134v9.7H41.272v-9.7H30.806v9.7H25.573A15.778,15.778,0,0,0,9.875,29.5v80.033a15.778,15.778,0,0,0,15.7,15.823H99.16a15.778,15.778,0,0,0,15.7-15.823V29.5A15.778,15.778,0,0,0,99.16,13.674Zm5.233,95.855c0,2.907-2.347,5.274-3.925,5.274H26.882c-4.194,0-6.541-2.367-6.541-5.274V44.919h84.052ZM78.434,52.481H65.249V67.351H78.434Zm0,41.5H65.249v14.869H78.434Zm0-20.219H65.249V88.63H78.434ZM97.384,52.481H84.2V67.351H97.383V52.481Zm0,41.5H84.2v14.869H97.383V93.979Zm0-20.219H84.2V88.63H97.383V73.76Zm-56.85,0H27.347V88.63H40.533V73.76Zm0,20.219H27.347v14.869H40.533V93.979Zm0-41.5H27.347V67.351H40.533V52.481ZM59.483,73.76H46.3V88.63H59.483Zm0,20.219H46.3v14.869H59.483Zm0-41.5H46.3V67.351H59.483Z" transform="translate(45.23 42.655)" fill="#e8ecef"></path></g></svg> 